<?xml version="1.0" encoding="UTF-8"?>
<svg xmlns="http://www.w3.org/2000/svg" viewBox="0 0 50 50" width="50px" height="50px">
<g id="surface26875026">
<path style=" stroke:none;fill-rule:nonzero;fill:rgb(39.215687%,100%,85.490197%);fill-opacity:1;" d="M 3.339844 1.058594 C 2.09375 1.058594 1.058594 2.09375 1.058594 3.339844 L 1.058594 46.660156 C 1.058594 47.90625 2.09375 48.941406 3.339844 48.941406 L 46.660156 48.941406 C 47.90625 48.941406 48.941406 47.90625 48.941406 46.660156 L 48.941406 3.339844 C 48.941406 2.09375 47.90625 1.058594 46.660156 1.058594 Z M 3.339844 3.339844 L 46.660156 3.339844 L 46.660156 46.660156 L 3.339844 46.660156 Z M 17.6875 12.460938 C 16.046875 12.460938 14.734375 12.640625 13.601562 12.933594 L 13.601562 37.539062 L 16.410156 37.539062 L 16.410156 27.085938 C 16.8125 27.121094 17.175781 27.121094 17.648438 27.121094 C 19.839844 27.121094 22.136719 26.210938 23.449219 24.386719 C 24.398438 23.148438 24.945312 21.613281 24.945312 19.351562 C 24.945312 17.203125 24.324219 15.414062 23.160156 14.246094 C 21.882812 13.003906 19.949219 12.460938 17.6875 12.460938 Z M 18.132812 14.332031 C 21.269531 14.332031 22.289062 16.589844 22.289062 19.105469 C 22.289062 22.570312 20.429688 24.398438 17.695312 24.398438 C 17.21875 24.398438 16.890625 24.359375 16.5625 24.324219 L 16.5625 14.511719 C 16.929688 14.402344 17.476562 14.332031 18.132812 14.332031 Z M 32.65625 19.300781 C 29.816406 19.300781 27.621094 21.316406 27.621094 24.210938 C 27.621094 26.222656 28.90625 27.761719 31.292969 29.265625 C 33.144531 30.4375 33.636719 31.386719 33.636719 32.742188 C 33.636719 34.316406 32.578125 35.308594 30.953125 35.308594 C 29.777344 35.308594 28.640625 34.792969 28 34.390625 L 27.28125 36.511719 C 28.074219 37.136719 29.550781 37.539062 30.875 37.539062 C 33.902344 37.539062 36.398438 35.820312 36.398438 32.265625 C 36.398438 29.8125 34.734375 28.164062 32.621094 26.84375 C 30.800781 25.671875 30.347656 24.976562 30.347656 23.804688 C 30.347656 22.632812 31.140625 21.535156 32.691406 21.535156 C 33.675781 21.535156 34.433594 21.863281 35.152344 22.339844 L 35.910156 20.214844 C 35.152344 19.738281 34.097656 19.300781 32.65625 19.300781 Z M 32.65625 19.300781 "/>
</g>
</svg>
